<?xml version="1.0" encoding="utf-8" standalone="no"?>
<!DOCTYPE svg PUBLIC "-//W3C//DTD SVG 1.1//EN"
  "http://www.w3.org/Graphics/SVG/1.1/DTD/svg11.dtd">
<svg xmlns:xlink="http://www.w3.org/1999/xlink" width="504pt" height="504pt" viewBox="0 0 504 504" xmlns="http://www.w3.org/2000/svg" version="1.1">
 <metadata>
  <rdf:RDF xmlns:dc="http://purl.org/dc/elements/1.1/" xmlns:cc="http://creativecommons.org/ns#" xmlns:rdf="http://www.w3.org/1999/02/22-rdf-syntax-ns#">
   <cc:Work>
    <dc:type rdf:resource="http://purl.org/dc/dcmitype/StillImage"/>
    <dc:date>2024-11-11T09:02:21.493823</dc:date>
    <dc:format>image/svg+xml</dc:format>
    <dc:creator>
     <cc:Agent>
      <dc:title>Matplotlib v3.9.1, https://matplotlib.org/</dc:title>
     </cc:Agent>
    </dc:creator>
   </cc:Work>
  </rdf:RDF>
 </metadata>
 <defs>
  <style type="text/css">*{stroke-linejoin: round; stroke-linecap: butt}</style>
 </defs>
 <g id="figure_1">
  <g id="patch_1">
   <path d="M 0 504 
L 504 504 
L 504 0 
L 0 0 
L 0 504 
z
" style="fill: none"/>
  </g>
  <g id="axes_1">
   <g id="patch_2">
    <path d="M 63 448.56 
L 453.6 448.56 
L 453.6 60.48 
L 63 60.48 
L 63 448.56 
z
" style="fill: none"/>
   </g>
   <g id="matplotlib.axis_1">
    <g id="xtick_1">
     <g id="line2d_1">
      <defs>
       <path id="m41f06f4bff" d="M 0 0 
L 0 3.5 
" style="stroke: #000000; stroke-width: 0.8"/>
      </defs>
      <g>
       <use xlink:href="#m41f06f4bff" x="132.269956" y="448.56" style="stroke: #000000; stroke-width: 0.8"/>
      </g>
     </g>
     <g id="text_1">
      <!-- −2.5 -->
      <g transform="translate(105.558863 472.276563) scale(0.22 -0.22)">
       <defs>
        <path id="DejaVuSans-2212" d="M 678 2272 
L 4684 2272 
L 4684 1741 
L 678 1741 
L 678 2272 
z
" transform="scale(0.015625)"/>
        <path id="DejaVuSans-32" d="M 1228 531 
L 3431 531 
L 3431 0 
L 469 0 
L 469 531 
Q 828 903 1448 1529 
Q 2069 2156 2228 2338 
Q 2531 2678 2651 2914 
Q 2772 3150 2772 3378 
Q 2772 3750 2511 3984 
Q 2250 4219 1831 4219 
Q 1534 4219 1204 4116 
Q 875 4013 500 3803 
L 500 4441 
Q 881 4594 1212 4672 
Q 1544 4750 1819 4750 
Q 2544 4750 2975 4387 
Q 3406 4025 3406 3419 
Q 3406 3131 3298 2873 
Q 3191 2616 2906 2266 
Q 2828 2175 2409 1742 
Q 1991 1309 1228 531 
z
" transform="scale(0.015625)"/>
        <path id="DejaVuSans-2e" d="M 684 794 
L 1344 794 
L 1344 0 
L 684 0 
L 684 794 
z
" transform="scale(0.015625)"/>
        <path id="DejaVuSans-35" d="M 691 4666 
L 3169 4666 
L 3169 4134 
L 1269 4134 
L 1269 2991 
Q 1406 3038 1543 3061 
Q 1681 3084 1819 3084 
Q 2600 3084 3056 2656 
Q 3513 2228 3513 1497 
Q 3513 744 3044 326 
Q 2575 -91 1722 -91 
Q 1428 -91 1123 -41 
Q 819 9 494 109 
L 494 744 
Q 775 591 1075 516 
Q 1375 441 1709 441 
Q 2250 441 2565 725 
Q 2881 1009 2881 1497 
Q 2881 1984 2565 2268 
Q 2250 2553 1709 2553 
Q 1456 2553 1204 2497 
Q 953 2441 691 2322 
L 691 4666 
z
" transform="scale(0.015625)"/>
       </defs>
       <use xlink:href="#DejaVuSans-2212"/>
       <use xlink:href="#DejaVuSans-32" x="83.789062"/>
       <use xlink:href="#DejaVuSans-2e" x="147.412109"/>
       <use xlink:href="#DejaVuSans-35" x="179.199219"/>
      </g>
     </g>
    </g>
    <g id="xtick_2">
     <g id="line2d_2">
      <g>
       <use xlink:href="#m41f06f4bff" x="229.545445" y="448.56" style="stroke: #000000; stroke-width: 0.8"/>
      </g>
     </g>
     <g id="text_2">
      <!-- 0.0 -->
      <g transform="translate(212.052007 472.276563) scale(0.22 -0.22)">
       <defs>
        <path id="DejaVuSans-30" d="M 2034 4250 
Q 1547 4250 1301 3770 
Q 1056 3291 1056 2328 
Q 1056 1369 1301 889 
Q 1547 409 2034 409 
Q 2525 409 2770 889 
Q 3016 1369 3016 2328 
Q 3016 3291 2770 3770 
Q 2525 4250 2034 4250 
z
M 2034 4750 
Q 2819 4750 3233 4129 
Q 3647 3509 3647 2328 
Q 3647 1150 3233 529 
Q 2819 -91 2034 -91 
Q 1250 -91 836 529 
Q 422 1150 422 2328 
Q 422 3509 836 4129 
Q 1250 4750 2034 4750 
z
" transform="scale(0.015625)"/>
       </defs>
       <use xlink:href="#DejaVuSans-30"/>
       <use xlink:href="#DejaVuSans-2e" x="63.623047"/>
       <use xlink:href="#DejaVuSans-30" x="95.410156"/>
      </g>
     </g>
    </g>
    <g id="xtick_3">
     <g id="line2d_3">
      <g>
       <use xlink:href="#m41f06f4bff" x="326.820933" y="448.56" style="stroke: #000000; stroke-width: 0.8"/>
      </g>
     </g>
     <g id="text_3">
      <!-- 2.5 -->
      <g transform="translate(309.327495 472.276563) scale(0.22 -0.22)">
       <use xlink:href="#DejaVuSans-32"/>
       <use xlink:href="#DejaVuSans-2e" x="63.623047"/>
       <use xlink:href="#DejaVuSans-35" x="95.410156"/>
      </g>
     </g>
    </g>
    <g id="xtick_4">
     <g id="line2d_4">
      <g>
       <use xlink:href="#m41f06f4bff" x="424.096421" y="448.56" style="stroke: #000000; stroke-width: 0.8"/>
      </g>
     </g>
     <g id="text_4">
      <!-- 5.0 -->
      <g transform="translate(406.602984 472.276563) scale(0.22 -0.22)">
       <use xlink:href="#DejaVuSans-35"/>
       <use xlink:href="#DejaVuSans-2e" x="63.623047"/>
       <use xlink:href="#DejaVuSans-30" x="95.410156"/>
      </g>
     </g>
    </g>
    <g id="text_5">
     <!-- $y_1$ -->
     <g transform="translate(247.6 496.008125) scale(0.2 -0.2)">
      <defs>
       <path id="DejaVuSans-Oblique-79" d="M 1588 -325 
Q 1188 -997 936 -1164 
Q 684 -1331 294 -1331 
L -159 -1331 
L -63 -850 
L 269 -850 
Q 509 -850 678 -719 
Q 847 -588 1056 -206 
L 1234 128 
L 459 3500 
L 1069 3500 
L 1650 819 
L 3256 3500 
L 3859 3500 
L 1588 -325 
z
" transform="scale(0.015625)"/>
       <path id="DejaVuSans-31" d="M 794 531 
L 1825 531 
L 1825 4091 
L 703 3866 
L 703 4441 
L 1819 4666 
L 2450 4666 
L 2450 531 
L 3481 531 
L 3481 0 
L 794 0 
L 794 531 
z
" transform="scale(0.015625)"/>
      </defs>
      <use xlink:href="#DejaVuSans-Oblique-79" transform="translate(0 0.3125)"/>
      <use xlink:href="#DejaVuSans-31" transform="translate(59.179688 -16.09375) scale(0.7)"/>
     </g>
    </g>
   </g>
   <g id="matplotlib.axis_2">
    <g id="ytick_1">
     <g id="line2d_5">
      <defs>
       <path id="mac65f0d4dd" d="M 0 0 
L -3.5 0 
" style="stroke: #000000; stroke-width: 0.8"/>
      </defs>
      <g>
       <use xlink:href="#mac65f0d4dd" x="63" y="402.307567" style="stroke: #000000; stroke-width: 0.8"/>
      </g>
     </g>
     <g id="text_6">
      <!-- −4 -->
      <g transform="translate(23.567188 410.665848) scale(0.22 -0.22)">
       <defs>
        <path id="DejaVuSans-34" d="M 2419 4116 
L 825 1625 
L 2419 1625 
L 2419 4116 
z
M 2253 4666 
L 3047 4666 
L 3047 1625 
L 3713 1625 
L 3713 1100 
L 3047 1100 
L 3047 0 
L 2419 0 
L 2419 1100 
L 313 1100 
L 313 1709 
L 2253 4666 
z
" transform="scale(0.015625)"/>
       </defs>
       <use xlink:href="#DejaVuSans-2212"/>
       <use xlink:href="#DejaVuSans-34" x="83.789062"/>
      </g>
     </g>
    </g>
    <g id="ytick_2">
     <g id="line2d_6">
      <g>
       <use xlink:href="#mac65f0d4dd" x="63" y="333.777387" style="stroke: #000000; stroke-width: 0.8"/>
      </g>
     </g>
     <g id="text_7">
      <!-- −2 -->
      <g transform="translate(23.567188 342.135668) scale(0.22 -0.22)">
       <use xlink:href="#DejaVuSans-2212"/>
       <use xlink:href="#DejaVuSans-32" x="83.789062"/>
      </g>
     </g>
    </g>
    <g id="ytick_3">
     <g id="line2d_7">
      <g>
       <use xlink:href="#mac65f0d4dd" x="63" y="265.247206" style="stroke: #000000; stroke-width: 0.8"/>
      </g>
     </g>
     <g id="text_8">
      <!-- 0 -->
      <g transform="translate(42.0025 273.605487) scale(0.22 -0.22)">
       <use xlink:href="#DejaVuSans-30"/>
      </g>
     </g>
    </g>
    <g id="ytick_4">
     <g id="line2d_8">
      <g>
       <use xlink:href="#mac65f0d4dd" x="63" y="196.717026" style="stroke: #000000; stroke-width: 0.8"/>
      </g>
     </g>
     <g id="text_9">
      <!-- 2 -->
      <g transform="translate(42.0025 205.075307) scale(0.22 -0.22)">
       <use xlink:href="#DejaVuSans-32"/>
      </g>
     </g>
    </g>
    <g id="ytick_5">
     <g id="line2d_9">
      <g>
       <use xlink:href="#mac65f0d4dd" x="63" y="128.186845" style="stroke: #000000; stroke-width: 0.8"/>
      </g>
     </g>
     <g id="text_10">
      <!-- 4 -->
      <g transform="translate(42.0025 136.545127) scale(0.22 -0.22)">
       <use xlink:href="#DejaVuSans-34"/>
      </g>
     </g>
    </g>
    <g id="text_11">
     <!-- $y_2$ -->
     <g transform="translate(15.367188 265.22) rotate(-90) scale(0.2 -0.2)">
      <use xlink:href="#DejaVuSans-Oblique-79" transform="translate(0 0.3125)"/>
      <use xlink:href="#DejaVuSans-32" transform="translate(59.179688 -16.09375) scale(0.7)"/>
     </g>
    </g>
   </g>
   <g id="line2d_10">
    <defs>
     <path id="m249e2f9751" d="M -5 5 
L 5 -5 
M -5 -5 
L 5 5 
" style="stroke: #ff0000"/>
    </defs>
    <g clip-path="url(#peff433d554)">
     <use xlink:href="#m249e2f9751" x="318.46273" y="197.048601" style="fill: #ff0000; stroke: #ff0000"/>
     <use xlink:href="#m249e2f9751" x="356.879077" y="162.998559" style="fill: #ff0000; stroke: #ff0000"/>
     <use xlink:href="#m249e2f9751" x="284.814135" y="194.484487" style="fill: #ff0000; stroke: #ff0000"/>
     <use xlink:href="#m249e2f9751" x="286.197804" y="191.396266" style="fill: #ff0000; stroke: #ff0000"/>
     <use xlink:href="#m249e2f9751" x="359.356249" y="178.07557" style="fill: #ff0000; stroke: #ff0000"/>
     <use xlink:href="#m249e2f9751" x="330.484879" y="144.023253" style="fill: #ff0000; stroke: #ff0000"/>
     <use xlink:href="#m249e2f9751" x="322.718505" y="158.737078" style="fill: #ff0000; stroke: #ff0000"/>
     <use xlink:href="#m249e2f9751" x="364.378066" y="184.488887" style="fill: #ff0000; stroke: #ff0000"/>
     <use xlink:href="#m249e2f9751" x="358.052409" y="188.966993" style="fill: #ff0000; stroke: #ff0000"/>
     <use xlink:href="#m249e2f9751" x="360.369799" y="167.666437" style="fill: #ff0000; stroke: #ff0000"/>
     <use xlink:href="#m249e2f9751" x="322.242925" y="158.166552" style="fill: #ff0000; stroke: #ff0000"/>
     <use xlink:href="#m249e2f9751" x="365.061463" y="133.333093" style="fill: #ff0000; stroke: #ff0000"/>
     <use xlink:href="#m249e2f9751" x="330.67871" y="193.844335" style="fill: #ff0000; stroke: #ff0000"/>
     <use xlink:href="#m249e2f9751" x="326.725451" y="126.376362" style="fill: #ff0000; stroke: #ff0000"/>
     <use xlink:href="#m249e2f9751" x="313.4343" y="143.299083" style="fill: #ff0000; stroke: #ff0000"/>
     <use xlink:href="#m249e2f9751" x="300.585912" y="162.092015" style="fill: #ff0000; stroke: #ff0000"/>
     <use xlink:href="#m249e2f9751" x="324.589203" y="191.451127" style="fill: #ff0000; stroke: #ff0000"/>
     <use xlink:href="#m249e2f9751" x="348.922737" y="208.110815" style="fill: #ff0000; stroke: #ff0000"/>
     <use xlink:href="#m249e2f9751" x="354.122404" y="193.831343" style="fill: #ff0000; stroke: #ff0000"/>
     <use xlink:href="#m249e2f9751" x="327.290897" y="78.12" style="fill: #ff0000; stroke: #ff0000"/>
     <use xlink:href="#m249e2f9751" x="325.472776" y="127.928328" style="fill: #ff0000; stroke: #ff0000"/>
     <use xlink:href="#m249e2f9751" x="332.222677" y="188.579991" style="fill: #ff0000; stroke: #ff0000"/>
     <use xlink:href="#m249e2f9751" x="367.115575" y="189.359784" style="fill: #ff0000; stroke: #ff0000"/>
     <use xlink:href="#m249e2f9751" x="254.895089" y="96.730858" style="fill: #ff0000; stroke: #ff0000"/>
     <use xlink:href="#m249e2f9751" x="363.90375" y="135.143552" style="fill: #ff0000; stroke: #ff0000"/>
     <use xlink:href="#m249e2f9751" x="391.269785" y="255.572336" style="fill: #ff0000; stroke: #ff0000"/>
    </g>
   </g>
   <g id="line2d_11">
    <defs>
     <path id="m19712bed94" d="M 0 5 
C 1.326016 5 2.597899 4.473168 3.535534 3.535534 
C 4.473168 2.597899 5 1.326016 5 0 
C 5 -1.326016 4.473168 -2.597899 3.535534 -3.535534 
C 2.597899 -4.473168 1.326016 -5 0 -5 
C -1.326016 -5 -2.597899 -4.473168 -3.535534 -3.535534 
C -4.473168 -2.597899 -5 -1.326016 -5 0 
C -5 1.326016 -4.473168 2.597899 -3.535534 3.535534 
C -2.597899 4.473168 -1.326016 5 0 5 
z
" style="stroke: #00ff00"/>
    </defs>
    <g clip-path="url(#peff433d554)">
     <use xlink:href="#m19712bed94" x="240.861213" y="219.93462" style="fill: #00ff00; stroke: #00ff00"/>
     <use xlink:href="#m19712bed94" x="282.284796" y="203.123178" style="fill: #00ff00; stroke: #00ff00"/>
     <use xlink:href="#m19712bed94" x="311.647017" y="219.236211" style="fill: #00ff00; stroke: #00ff00"/>
     <use xlink:href="#m19712bed94" x="310.308774" y="235.885317" style="fill: #00ff00; stroke: #00ff00"/>
     <use xlink:href="#m19712bed94" x="345.171189" y="243.530274" style="fill: #00ff00; stroke: #00ff00"/>
     <use xlink:href="#m19712bed94" x="109.244229" y="296.410694" style="fill: #00ff00; stroke: #00ff00"/>
     <use xlink:href="#m19712bed94" x="375.102492" y="296.144737" style="fill: #00ff00; stroke: #00ff00"/>
    </g>
   </g>
   <g id="line2d_12">
    <defs>
     <path id="md03c148b7d" d="M -5 0 
L 5 0 
M 0 5 
L 0 -5 
" style="stroke: #0000ff"/>
    </defs>
    <g clip-path="url(#peff433d554)">
     <use xlink:href="#md03c148b7d" x="141.174735" y="404.008936" style="fill: #0000ff; stroke: #0000ff"/>
     <use xlink:href="#md03c148b7d" x="185.180421" y="337.696825" style="fill: #0000ff; stroke: #0000ff"/>
     <use xlink:href="#md03c148b7d" x="82.467261" y="386.15645" style="fill: #0000ff; stroke: #0000ff"/>
     <use xlink:href="#md03c148b7d" x="113.224154" y="331.184947" style="fill: #0000ff; stroke: #0000ff"/>
     <use xlink:href="#md03c148b7d" x="174.655554" y="320.843365" style="fill: #0000ff; stroke: #0000ff"/>
     <use xlink:href="#md03c148b7d" x="113.443267" y="318.12193" style="fill: #0000ff; stroke: #0000ff"/>
     <use xlink:href="#md03c148b7d" x="145.065443" y="304.869508" style="fill: #0000ff; stroke: #0000ff"/>
     <use xlink:href="#md03c148b7d" x="165.065129" y="332.009792" style="fill: #0000ff; stroke: #0000ff"/>
     <use xlink:href="#md03c148b7d" x="131.623601" y="376.873373" style="fill: #0000ff; stroke: #0000ff"/>
     <use xlink:href="#md03c148b7d" x="133.468497" y="320.054458" style="fill: #0000ff; stroke: #0000ff"/>
     <use xlink:href="#md03c148b7d" x="156.787934" y="360.593446" style="fill: #0000ff; stroke: #0000ff"/>
     <use xlink:href="#md03c148b7d" x="80.754545" y="393.635599" style="fill: #0000ff; stroke: #0000ff"/>
     <use xlink:href="#md03c148b7d" x="136.604743" y="387.84511" style="fill: #0000ff; stroke: #0000ff"/>
     <use xlink:href="#md03c148b7d" x="129.058356" y="341.193623" style="fill: #0000ff; stroke: #0000ff"/>
     <use xlink:href="#md03c148b7d" x="156.39979" y="351.098179" style="fill: #0000ff; stroke: #0000ff"/>
     <use xlink:href="#md03c148b7d" x="144.836308" y="307.607261" style="fill: #0000ff; stroke: #0000ff"/>
     <use xlink:href="#md03c148b7d" x="138.256635" y="409.91505" style="fill: #0000ff; stroke: #0000ff"/>
     <use xlink:href="#md03c148b7d" x="113.722004" y="329.24755" style="fill: #0000ff; stroke: #0000ff"/>
     <use xlink:href="#md03c148b7d" x="169.467219" y="362.473288" style="fill: #0000ff; stroke: #0000ff"/>
     <use xlink:href="#md03c148b7d" x="117.194909" y="314.514756" style="fill: #0000ff; stroke: #0000ff"/>
     <use xlink:href="#md03c148b7d" x="97.968413" y="399.482597" style="fill: #0000ff; stroke: #0000ff"/>
     <use xlink:href="#md03c148b7d" x="147.769202" y="388.531011" style="fill: #0000ff; stroke: #0000ff"/>
     <use xlink:href="#md03c148b7d" x="84.766138" y="308.980942" style="fill: #0000ff; stroke: #0000ff"/>
     <use xlink:href="#md03c148b7d" x="186.120414" y="319.611535" style="fill: #0000ff; stroke: #0000ff"/>
     <use xlink:href="#md03c148b7d" x="113.206242" y="421.929645" style="fill: #0000ff; stroke: #0000ff"/>
     <use xlink:href="#md03c148b7d" x="146.579608" y="357.177372" style="fill: #0000ff; stroke: #0000ff"/>
     <use xlink:href="#md03c148b7d" x="98.977929" y="430.92" style="fill: #0000ff; stroke: #0000ff"/>
     <use xlink:href="#md03c148b7d" x="210.529343" y="381.369909" style="fill: #0000ff; stroke: #0000ff"/>
     <use xlink:href="#md03c148b7d" x="97.76355" y="371.492088" style="fill: #0000ff; stroke: #0000ff"/>
     <use xlink:href="#md03c148b7d" x="249.749862" y="346.211422" style="fill: #0000ff; stroke: #0000ff"/>
     <use xlink:href="#md03c148b7d" x="306.658885" y="354.361036" style="fill: #0000ff; stroke: #0000ff"/>
     <use xlink:href="#md03c148b7d" x="231.121554" y="340.39875" style="fill: #0000ff; stroke: #0000ff"/>
     <use xlink:href="#md03c148b7d" x="293.536372" y="393.882889" style="fill: #0000ff; stroke: #0000ff"/>
     <use xlink:href="#md03c148b7d" x="290.7424" y="385.154317" style="fill: #0000ff; stroke: #0000ff"/>
     <use xlink:href="#md03c148b7d" x="300.622564" y="385.553236" style="fill: #0000ff; stroke: #0000ff"/>
     <use xlink:href="#md03c148b7d" x="276.621073" y="340.252858" style="fill: #0000ff; stroke: #0000ff"/>
     <use xlink:href="#md03c148b7d" x="318.768074" y="355.866825" style="fill: #0000ff; stroke: #0000ff"/>
     <use xlink:href="#md03c148b7d" x="345.354748" y="348.876954" style="fill: #0000ff; stroke: #0000ff"/>
     <use xlink:href="#md03c148b7d" x="370.727296" y="333.317336" style="fill: #0000ff; stroke: #0000ff"/>
     <use xlink:href="#md03c148b7d" x="435.845455" y="345.886296" style="fill: #0000ff; stroke: #0000ff"/>
     <use xlink:href="#md03c148b7d" x="315.421504" y="306.472797" style="fill: #0000ff; stroke: #0000ff"/>
     <use xlink:href="#md03c148b7d" x="344.233233" y="342.566599" style="fill: #0000ff; stroke: #0000ff"/>
     <use xlink:href="#md03c148b7d" x="331.077166" y="345.762964" style="fill: #0000ff; stroke: #0000ff"/>
     <use xlink:href="#md03c148b7d" x="339.901407" y="348.462467" style="fill: #0000ff; stroke: #0000ff"/>
     <use xlink:href="#md03c148b7d" x="364.172861" y="308.875471" style="fill: #0000ff; stroke: #0000ff"/>
     <use xlink:href="#md03c148b7d" x="393.880385" y="364.271342" style="fill: #0000ff; stroke: #0000ff"/>
     <use xlink:href="#md03c148b7d" x="365.88789" y="314.385309" style="fill: #0000ff; stroke: #0000ff"/>
     <use xlink:href="#md03c148b7d" x="311.700406" y="337.483015" style="fill: #0000ff; stroke: #0000ff"/>
     <use xlink:href="#md03c148b7d" x="342.292755" y="337.216276" style="fill: #0000ff; stroke: #0000ff"/>
     <use xlink:href="#md03c148b7d" x="289.640144" y="402.25143" style="fill: #0000ff; stroke: #0000ff"/>
     <use xlink:href="#md03c148b7d" x="340.893181" y="354.540913" style="fill: #0000ff; stroke: #0000ff"/>
     <use xlink:href="#md03c148b7d" x="301.956959" y="357.34353" style="fill: #0000ff; stroke: #0000ff"/>
     <use xlink:href="#md03c148b7d" x="342.90818" y="337.512348" style="fill: #0000ff; stroke: #0000ff"/>
     <use xlink:href="#md03c148b7d" x="340.660998" y="386.525107" style="fill: #0000ff; stroke: #0000ff"/>
     <use xlink:href="#md03c148b7d" x="343.959345" y="355.994229" style="fill: #0000ff; stroke: #0000ff"/>
     <use xlink:href="#md03c148b7d" x="294.262075" y="369.789643" style="fill: #0000ff; stroke: #0000ff"/>
     <use xlink:href="#md03c148b7d" x="416.831151" y="343.904318" style="fill: #0000ff; stroke: #0000ff"/>
    </g>
   </g>
   <g id="line2d_13">
    <defs>
     <path id="m571756cf2b" d="M 0 6 
C 1.591219 6 3.117479 5.367802 4.242641 4.242641 
C 5.367802 3.117479 6 1.591219 6 0 
C 6 -1.591219 5.367802 -3.117479 4.242641 -4.242641 
C 3.117479 -5.367802 1.591219 -6 0 -6 
C -1.591219 -6 -3.117479 -5.367802 -4.242641 -4.242641 
C -5.367802 -3.117479 -6 -1.591219 -6 0 
C -6 1.591219 -5.367802 3.117479 -4.242641 4.242641 
C -3.117479 5.367802 -1.591219 6 0 6 
z
" style="stroke: #000000"/>
    </defs>
    <g clip-path="url(#peff433d554)">
     <use xlink:href="#m571756cf2b" x="337.121695" y="153.574618" style="stroke: #000000"/>
     <use xlink:href="#m571756cf2b" x="243.327731" y="248.640901" style="stroke: #000000"/>
     <use xlink:href="#m571756cf2b" x="245.151677" y="358.35681" style="stroke: #000000"/>
    </g>
   </g>
   <g id="patch_3">
    <path d="M 63 448.56 
L 63 60.48 
" style="fill: none; stroke: #000000; stroke-width: 0.8; stroke-linejoin: miter; stroke-linecap: square"/>
   </g>
   <g id="patch_4">
    <path d="M 453.6 448.56 
L 453.6 60.48 
" style="fill: none; stroke: #000000; stroke-width: 0.8; stroke-linejoin: miter; stroke-linecap: square"/>
   </g>
   <g id="patch_5">
    <path d="M 63 448.56 
L 453.6 448.56 
" style="fill: none; stroke: #000000; stroke-width: 0.8; stroke-linejoin: miter; stroke-linecap: square"/>
   </g>
   <g id="patch_6">
    <path d="M 63 60.48 
L 453.6 60.48 
" style="fill: none; stroke: #000000; stroke-width: 0.8; stroke-linejoin: miter; stroke-linecap: square"/>
   </g>
   <g id="text_12">
    <!-- Iteration 1 -->
    <g transform="translate(189.715688 54.48) scale(0.264 -0.264)">
     <defs>
      <path id="DejaVuSans-49" d="M 628 4666 
L 1259 4666 
L 1259 0 
L 628 0 
L 628 4666 
z
" transform="scale(0.015625)"/>
      <path id="DejaVuSans-74" d="M 1172 4494 
L 1172 3500 
L 2356 3500 
L 2356 3053 
L 1172 3053 
L 1172 1153 
Q 1172 725 1289 603 
Q 1406 481 1766 481 
L 2356 481 
L 2356 0 
L 1766 0 
Q 1100 0 847 248 
Q 594 497 594 1153 
L 594 3053 
L 172 3053 
L 172 3500 
L 594 3500 
L 594 4494 
L 1172 4494 
z
" transform="scale(0.015625)"/>
      <path id="DejaVuSans-65" d="M 3597 1894 
L 3597 1613 
L 953 1613 
Q 991 1019 1311 708 
Q 1631 397 2203 397 
Q 2534 397 2845 478 
Q 3156 559 3463 722 
L 3463 178 
Q 3153 47 2828 -22 
Q 2503 -91 2169 -91 
Q 1331 -91 842 396 
Q 353 884 353 1716 
Q 353 2575 817 3079 
Q 1281 3584 2069 3584 
Q 2775 3584 3186 3129 
Q 3597 2675 3597 1894 
z
M 3022 2063 
Q 3016 2534 2758 2815 
Q 2500 3097 2075 3097 
Q 1594 3097 1305 2825 
Q 1016 2553 972 2059 
L 3022 2063 
z
" transform="scale(0.015625)"/>
      <path id="DejaVuSans-72" d="M 2631 2963 
Q 2534 3019 2420 3045 
Q 2306 3072 2169 3072 
Q 1681 3072 1420 2755 
Q 1159 2438 1159 1844 
L 1159 0 
L 581 0 
L 581 3500 
L 1159 3500 
L 1159 2956 
Q 1341 3275 1631 3429 
Q 1922 3584 2338 3584 
Q 2397 3584 2469 3576 
Q 2541 3569 2628 3553 
L 2631 2963 
z
" transform="scale(0.015625)"/>
      <path id="DejaVuSans-61" d="M 2194 1759 
Q 1497 1759 1228 1600 
Q 959 1441 959 1056 
Q 959 750 1161 570 
Q 1363 391 1709 391 
Q 2188 391 2477 730 
Q 2766 1069 2766 1631 
L 2766 1759 
L 2194 1759 
z
M 3341 1997 
L 3341 0 
L 2766 0 
L 2766 531 
Q 2569 213 2275 61 
Q 1981 -91 1556 -91 
Q 1019 -91 701 211 
Q 384 513 384 1019 
Q 384 1609 779 1909 
Q 1175 2209 1959 2209 
L 2766 2209 
L 2766 2266 
Q 2766 2663 2505 2880 
Q 2244 3097 1772 3097 
Q 1472 3097 1187 3025 
Q 903 2953 641 2809 
L 641 3341 
Q 956 3463 1253 3523 
Q 1550 3584 1831 3584 
Q 2591 3584 2966 3190 
Q 3341 2797 3341 1997 
z
" transform="scale(0.015625)"/>
      <path id="DejaVuSans-69" d="M 603 3500 
L 1178 3500 
L 1178 0 
L 603 0 
L 603 3500 
z
M 603 4863 
L 1178 4863 
L 1178 4134 
L 603 4134 
L 603 4863 
z
" transform="scale(0.015625)"/>
      <path id="DejaVuSans-6f" d="M 1959 3097 
Q 1497 3097 1228 2736 
Q 959 2375 959 1747 
Q 959 1119 1226 758 
Q 1494 397 1959 397 
Q 2419 397 2687 759 
Q 2956 1122 2956 1747 
Q 2956 2369 2687 2733 
Q 2419 3097 1959 3097 
z
M 1959 3584 
Q 2709 3584 3137 3096 
Q 3566 2609 3566 1747 
Q 3566 888 3137 398 
Q 2709 -91 1959 -91 
Q 1206 -91 779 398 
Q 353 888 353 1747 
Q 353 2609 779 3096 
Q 1206 3584 1959 3584 
z
" transform="scale(0.015625)"/>
      <path id="DejaVuSans-6e" d="M 3513 2113 
L 3513 0 
L 2938 0 
L 2938 2094 
Q 2938 2591 2744 2837 
Q 2550 3084 2163 3084 
Q 1697 3084 1428 2787 
Q 1159 2491 1159 1978 
L 1159 0 
L 581 0 
L 581 3500 
L 1159 3500 
L 1159 2956 
Q 1366 3272 1645 3428 
Q 1925 3584 2291 3584 
Q 2894 3584 3203 3211 
Q 3513 2838 3513 2113 
z
" transform="scale(0.015625)"/>
      <path id="DejaVuSans-20" transform="scale(0.015625)"/>
     </defs>
     <use xlink:href="#DejaVuSans-49"/>
     <use xlink:href="#DejaVuSans-74" x="29.492188"/>
     <use xlink:href="#DejaVuSans-65" x="68.701172"/>
     <use xlink:href="#DejaVuSans-72" x="130.224609"/>
     <use xlink:href="#DejaVuSans-61" x="171.337891"/>
     <use xlink:href="#DejaVuSans-74" x="232.617188"/>
     <use xlink:href="#DejaVuSans-69" x="271.826172"/>
     <use xlink:href="#DejaVuSans-6f" x="299.609375"/>
     <use xlink:href="#DejaVuSans-6e" x="360.791016"/>
     <use xlink:href="#DejaVuSans-20" x="424.169922"/>
     <use xlink:href="#DejaVuSans-31" x="455.957031"/>
    </g>
   </g>
  </g>
 </g>
 <defs>
  <clipPath id="peff433d554">
   <rect x="63" y="60.48" width="390.6" height="388.08"/>
  </clipPath>
 </defs>
</svg>
