<?xml version="1.0" encoding="utf-8" standalone="no"?>
<!DOCTYPE svg PUBLIC "-//W3C//DTD SVG 1.1//EN"
  "http://www.w3.org/Graphics/SVG/1.1/DTD/svg11.dtd">
<svg xmlns:xlink="http://www.w3.org/1999/xlink" width="360pt" height="360pt" viewBox="0 0 360 360" xmlns="http://www.w3.org/2000/svg" version="1.1">
 <metadata>
  <rdf:RDF xmlns:dc="http://purl.org/dc/elements/1.1/" xmlns:cc="http://creativecommons.org/ns#" xmlns:rdf="http://www.w3.org/1999/02/22-rdf-syntax-ns#">
   <cc:Work>
    <dc:type rdf:resource="http://purl.org/dc/dcmitype/StillImage"/>
    <dc:date>2023-11-10T09:24:54.668317</dc:date>
    <dc:format>image/svg+xml</dc:format>
    <dc:creator>
     <cc:Agent>
      <dc:title>Matplotlib v3.8.0, https://matplotlib.org/</dc:title>
     </cc:Agent>
    </dc:creator>
   </cc:Work>
  </rdf:RDF>
 </metadata>
 <defs>
  <style type="text/css">*{stroke-linejoin: round; stroke-linecap: butt}</style>
 </defs>
 <g id="figure_1">
  <g id="patch_1">
   <path d="M 0 360 
L 360 360 
L 360 0 
L 0 0 
L 0 360 
z
" style="fill: none"/>
  </g>
  <g id="axes_1">
   <g id="patch_2">
    <path d="M 45 320.4 
L 324 320.4 
L 324 43.2 
L 45 43.2 
L 45 320.4 
z
" style="fill: none"/>
   </g>
   <g id="matplotlib.axis_1">
    <g id="xtick_1">
     <g id="line2d_1">
      <defs>
       <path id="mc12d639cbb" d="M 0 0 
L 0 3.5 
" style="stroke: #000000; stroke-width: 0.8"/>
      </defs>
      <g>
       <use xlink:href="#mc12d639cbb" x="59.441122" y="320.4" style="stroke: #000000; stroke-width: 0.8"/>
      </g>
     </g>
     <g id="text_1">
      <!-- −5 -->
      <g transform="translate(43.224715 344.116562) scale(0.22 -0.22)">
       <defs>
        <path id="DejaVuSans-2212" d="M 678 2272 
L 4684 2272 
L 4684 1741 
L 678 1741 
L 678 2272 
z
" transform="scale(0.015625)"/>
        <path id="DejaVuSans-35" d="M 691 4666 
L 3169 4666 
L 3169 4134 
L 1269 4134 
L 1269 2991 
Q 1406 3038 1543 3061 
Q 1681 3084 1819 3084 
Q 2600 3084 3056 2656 
Q 3513 2228 3513 1497 
Q 3513 744 3044 326 
Q 2575 -91 1722 -91 
Q 1428 -91 1123 -41 
Q 819 9 494 109 
L 494 744 
Q 775 591 1075 516 
Q 1375 441 1709 441 
Q 2250 441 2565 725 
Q 2881 1009 2881 1497 
Q 2881 1984 2565 2268 
Q 2250 2553 1709 2553 
Q 1456 2553 1204 2497 
Q 953 2441 691 2322 
L 691 4666 
z
" transform="scale(0.015625)"/>
       </defs>
       <use xlink:href="#DejaVuSans-2212"/>
       <use xlink:href="#DejaVuSans-35" x="83.789062"/>
      </g>
     </g>
    </g>
    <g id="xtick_2">
     <g id="line2d_2">
      <g>
       <use xlink:href="#mc12d639cbb" x="185.787721" y="320.4" style="stroke: #000000; stroke-width: 0.8"/>
      </g>
     </g>
     <g id="text_2">
      <!-- 0 -->
      <g transform="translate(178.788971 344.116562) scale(0.22 -0.22)">
       <defs>
        <path id="DejaVuSans-30" d="M 2034 4250 
Q 1547 4250 1301 3770 
Q 1056 3291 1056 2328 
Q 1056 1369 1301 889 
Q 1547 409 2034 409 
Q 2525 409 2770 889 
Q 3016 1369 3016 2328 
Q 3016 3291 2770 3770 
Q 2525 4250 2034 4250 
z
M 2034 4750 
Q 2819 4750 3233 4129 
Q 3647 3509 3647 2328 
Q 3647 1150 3233 529 
Q 2819 -91 2034 -91 
Q 1250 -91 836 529 
Q 422 1150 422 2328 
Q 422 3509 836 4129 
Q 1250 4750 2034 4750 
z
" transform="scale(0.015625)"/>
       </defs>
       <use xlink:href="#DejaVuSans-30"/>
      </g>
     </g>
    </g>
    <g id="xtick_3">
     <g id="line2d_3">
      <g>
       <use xlink:href="#mc12d639cbb" x="312.13432" y="320.4" style="stroke: #000000; stroke-width: 0.8"/>
      </g>
     </g>
     <g id="text_3">
      <!-- 5 -->
      <g transform="translate(305.13557 344.116562) scale(0.22 -0.22)">
       <use xlink:href="#DejaVuSans-35"/>
      </g>
     </g>
    </g>
    <g id="text_4">
     <!-- $y_1$ -->
     <g transform="translate(172.73 369.36375) scale(0.22 -0.22)">
      <defs>
       <path id="DejaVuSans-Oblique-79" d="M 1588 -325 
Q 1188 -997 936 -1164 
Q 684 -1331 294 -1331 
L -159 -1331 
L -63 -850 
L 269 -850 
Q 509 -850 678 -719 
Q 847 -588 1056 -206 
L 1234 128 
L 459 3500 
L 1069 3500 
L 1650 819 
L 3256 3500 
L 3859 3500 
L 1588 -325 
z
" transform="scale(0.015625)"/>
       <path id="DejaVuSans-31" d="M 794 531 
L 1825 531 
L 1825 4091 
L 703 3866 
L 703 4441 
L 1819 4666 
L 2450 4666 
L 2450 531 
L 3481 531 
L 3481 0 
L 794 0 
L 794 531 
z
" transform="scale(0.015625)"/>
      </defs>
      <use xlink:href="#DejaVuSans-Oblique-79" transform="translate(0 0.3125)"/>
      <use xlink:href="#DejaVuSans-31" transform="translate(59.179688 -16.09375) scale(0.7)"/>
     </g>
    </g>
   </g>
   <g id="matplotlib.axis_2">
    <g id="ytick_1">
     <g id="line2d_4">
      <defs>
       <path id="m4e3aaaa0dc" d="M 0 0 
L -3.5 0 
" style="stroke: #000000; stroke-width: 0.8"/>
      </defs>
      <g>
       <use xlink:href="#m4e3aaaa0dc" x="45" y="290.222081" style="stroke: #000000; stroke-width: 0.8"/>
      </g>
     </g>
     <g id="text_5">
      <!-- −4 -->
      <g transform="translate(5.567188 298.580363) scale(0.22 -0.22)">
       <defs>
        <path id="DejaVuSans-34" d="M 2419 4116 
L 825 1625 
L 2419 1625 
L 2419 4116 
z
M 2253 4666 
L 3047 4666 
L 3047 1625 
L 3713 1625 
L 3713 1100 
L 3047 1100 
L 3047 0 
L 2419 0 
L 2419 1100 
L 313 1100 
L 313 1709 
L 2253 4666 
z
" transform="scale(0.015625)"/>
       </defs>
       <use xlink:href="#DejaVuSans-2212"/>
       <use xlink:href="#DejaVuSans-34" x="83.789062"/>
      </g>
     </g>
    </g>
    <g id="ytick_2">
     <g id="line2d_5">
      <g>
       <use xlink:href="#m4e3aaaa0dc" x="45" y="232.368763" style="stroke: #000000; stroke-width: 0.8"/>
      </g>
     </g>
     <g id="text_6">
      <!-- −2 -->
      <g transform="translate(5.567188 240.727044) scale(0.22 -0.22)">
       <defs>
        <path id="DejaVuSans-32" d="M 1228 531 
L 3431 531 
L 3431 0 
L 469 0 
L 469 531 
Q 828 903 1448 1529 
Q 2069 2156 2228 2338 
Q 2531 2678 2651 2914 
Q 2772 3150 2772 3378 
Q 2772 3750 2511 3984 
Q 2250 4219 1831 4219 
Q 1534 4219 1204 4116 
Q 875 4013 500 3803 
L 500 4441 
Q 881 4594 1212 4672 
Q 1544 4750 1819 4750 
Q 2544 4750 2975 4387 
Q 3406 4025 3406 3419 
Q 3406 3131 3298 2873 
Q 3191 2616 2906 2266 
Q 2828 2175 2409 1742 
Q 1991 1309 1228 531 
z
" transform="scale(0.015625)"/>
       </defs>
       <use xlink:href="#DejaVuSans-2212"/>
       <use xlink:href="#DejaVuSans-32" x="83.789062"/>
      </g>
     </g>
    </g>
    <g id="ytick_3">
     <g id="line2d_6">
      <g>
       <use xlink:href="#m4e3aaaa0dc" x="45" y="174.515444" style="stroke: #000000; stroke-width: 0.8"/>
      </g>
     </g>
     <g id="text_7">
      <!-- 0 -->
      <g transform="translate(24.0025 182.873725) scale(0.22 -0.22)">
       <use xlink:href="#DejaVuSans-30"/>
      </g>
     </g>
    </g>
    <g id="ytick_4">
     <g id="line2d_7">
      <g>
       <use xlink:href="#m4e3aaaa0dc" x="45" y="116.662126" style="stroke: #000000; stroke-width: 0.8"/>
      </g>
     </g>
     <g id="text_8">
      <!-- 2 -->
      <g transform="translate(24.0025 125.020407) scale(0.22 -0.22)">
       <use xlink:href="#DejaVuSans-32"/>
      </g>
     </g>
    </g>
    <g id="ytick_5">
     <g id="line2d_8">
      <g>
       <use xlink:href="#m4e3aaaa0dc" x="45" y="58.808807" style="stroke: #000000; stroke-width: 0.8"/>
      </g>
     </g>
     <g id="text_9">
      <!-- 4 -->
      <g transform="translate(24.0025 67.167088) scale(0.22 -0.22)">
       <use xlink:href="#DejaVuSans-34"/>
      </g>
     </g>
    </g>
    <g id="text_10">
     <!-- $y_2$ -->
     <g transform="translate(-3.052812 193.57) rotate(-90) scale(0.22 -0.22)">
      <use xlink:href="#DejaVuSans-Oblique-79" transform="translate(0 0.3125)"/>
      <use xlink:href="#DejaVuSans-32" transform="translate(59.179688 -16.09375) scale(0.7)"/>
     </g>
    </g>
   </g>
   <g id="line2d_9">
    <defs>
     <path id="m37a0f3778b" d="M 0 2.5 
C 0.663008 2.5 1.29895 2.236584 1.767767 1.767767 
C 2.236584 1.29895 2.5 0.663008 2.5 0 
C 2.5 -0.663008 2.236584 -1.29895 1.767767 -1.767767 
C 1.29895 -2.236584 0.663008 -2.5 0 -2.5 
C -0.663008 -2.5 -1.29895 -2.236584 -1.767767 -1.767767 
C -2.236584 -1.29895 -2.5 -0.663008 -2.5 0 
C -2.5 0.663008 -2.236584 1.29895 -1.767767 1.767767 
C -1.29895 2.236584 -0.663008 2.5 0 2.5 
z
" style="stroke: #000000"/>
    </defs>
    <g clip-path="url(#p059c3f5265)">
     <use xlink:href="#m37a0f3778b" x="189.687532" y="94.860525" style="stroke: #000000"/>
     <use xlink:href="#m37a0f3778b" x="277.637953" y="93.569611" style="stroke: #000000"/>
     <use xlink:href="#m37a0f3778b" x="228.282547" y="111.030908" style="stroke: #000000"/>
     <use xlink:href="#m37a0f3778b" x="261.635549" y="127.830412" style="stroke: #000000"/>
     <use xlink:href="#m37a0f3778b" x="235.785113" y="65.488182" style="stroke: #000000"/>
     <use xlink:href="#m37a0f3778b" x="204.221435" y="98.44349" style="stroke: #000000"/>
     <use xlink:href="#m37a0f3778b" x="280.72489" y="56.287055" style="stroke: #000000"/>
     <use xlink:href="#m37a0f3778b" x="273.998151" y="80.195541" style="stroke: #000000"/>
     <use xlink:href="#m37a0f3778b" x="263.690795" y="55.8" style="stroke: #000000"/>
     <use xlink:href="#m37a0f3778b" x="258.157816" y="132.142725" style="stroke: #000000"/>
     <use xlink:href="#m37a0f3778b" x="210.355631" y="151.512606" style="stroke: #000000"/>
     <use xlink:href="#m37a0f3778b" x="234.71771" y="65.160987" style="stroke: #000000"/>
     <use xlink:href="#m37a0f3778b" x="275.440015" y="78.517176" style="stroke: #000000"/>
     <use xlink:href="#m37a0f3778b" x="247.271007" y="127.280449" style="stroke: #000000"/>
     <use xlink:href="#m37a0f3778b" x="245.321878" y="114.756591" style="stroke: #000000"/>
     <use xlink:href="#m37a0f3778b" x="265.540155" y="90.51342" style="stroke: #000000"/>
     <use xlink:href="#m37a0f3778b" x="256.170203" y="100.010309" style="stroke: #000000"/>
     <use xlink:href="#m37a0f3778b" x="253.553943" y="154.261046" style="stroke: #000000"/>
     <use xlink:href="#m37a0f3778b" x="243.539692" y="115.280698" style="stroke: #000000"/>
     <use xlink:href="#m37a0f3778b" x="233.143519" y="168.311445" style="stroke: #000000"/>
     <use xlink:href="#m37a0f3778b" x="260.138825" y="98.191309" style="stroke: #000000"/>
     <use xlink:href="#m37a0f3778b" x="244.204039" y="85.795777" style="stroke: #000000"/>
     <use xlink:href="#m37a0f3778b" x="274.096711" y="105.28165" style="stroke: #000000"/>
     <use xlink:href="#m37a0f3778b" x="258.686496" y="137.788053" style="stroke: #000000"/>
     <use xlink:href="#m37a0f3778b" x="250.511551" y="65.571585" style="stroke: #000000"/>
     <use xlink:href="#m37a0f3778b" x="239.939316" y="150.033446" style="stroke: #000000"/>
     <use xlink:href="#m37a0f3778b" x="208.998144" y="99.619284" style="stroke: #000000"/>
     <use xlink:href="#m37a0f3778b" x="263.077102" y="118.461931" style="stroke: #000000"/>
     <use xlink:href="#m37a0f3778b" x="246.925381" y="67.437191" style="stroke: #000000"/>
     <use xlink:href="#m37a0f3778b" x="223.423775" y="98.696223" style="stroke: #000000"/>
     <use xlink:href="#m37a0f3778b" x="123.812341" y="217.960041" style="stroke: #000000"/>
     <use xlink:href="#m37a0f3778b" x="102.306255" y="241.381567" style="stroke: #000000"/>
     <use xlink:href="#m37a0f3778b" x="144.900667" y="307.8" style="stroke: #000000"/>
     <use xlink:href="#m37a0f3778b" x="95.643871" y="291.470219" style="stroke: #000000"/>
     <use xlink:href="#m37a0f3778b" x="131.397295" y="245.411442" style="stroke: #000000"/>
     <use xlink:href="#m37a0f3778b" x="136.076091" y="266.154965" style="stroke: #000000"/>
     <use xlink:href="#m37a0f3778b" x="122.93171" y="263.530387" style="stroke: #000000"/>
     <use xlink:href="#m37a0f3778b" x="88.291547" y="214.992933" style="stroke: #000000"/>
     <use xlink:href="#m37a0f3778b" x="114.111734" y="277.296993" style="stroke: #000000"/>
     <use xlink:href="#m37a0f3778b" x="136.855648" y="211.048302" style="stroke: #000000"/>
     <use xlink:href="#m37a0f3778b" x="150.872342" y="248.964225" style="stroke: #000000"/>
     <use xlink:href="#m37a0f3778b" x="116.173379" y="255.788898" style="stroke: #000000"/>
     <use xlink:href="#m37a0f3778b" x="94.995147" y="225.845751" style="stroke: #000000"/>
     <use xlink:href="#m37a0f3778b" x="109.403036" y="190.539943" style="stroke: #000000"/>
     <use xlink:href="#m37a0f3778b" x="134.635659" y="261.90728" style="stroke: #000000"/>
     <use xlink:href="#m37a0f3778b" x="123.122131" y="270.720423" style="stroke: #000000"/>
     <use xlink:href="#m37a0f3778b" x="107.68037" y="243.98181" style="stroke: #000000"/>
     <use xlink:href="#m37a0f3778b" x="129.002396" y="291.018386" style="stroke: #000000"/>
     <use xlink:href="#m37a0f3778b" x="101.668442" y="250.68919" style="stroke: #000000"/>
     <use xlink:href="#m37a0f3778b" x="95.182499" y="263.027311" style="stroke: #000000"/>
     <use xlink:href="#m37a0f3778b" x="57.681818" y="256.083558" style="stroke: #000000"/>
     <use xlink:href="#m37a0f3778b" x="105.946836" y="256.529589" style="stroke: #000000"/>
     <use xlink:href="#m37a0f3778b" x="120.072758" y="245.883489" style="stroke: #000000"/>
     <use xlink:href="#m37a0f3778b" x="109.202546" y="217.774696" style="stroke: #000000"/>
     <use xlink:href="#m37a0f3778b" x="184.503646" y="256.613782" style="stroke: #000000"/>
     <use xlink:href="#m37a0f3778b" x="138.487119" y="289.168152" style="stroke: #000000"/>
     <use xlink:href="#m37a0f3778b" x="145.070997" y="220.671699" style="stroke: #000000"/>
     <use xlink:href="#m37a0f3778b" x="95.690917" y="303.521726" style="stroke: #000000"/>
     <use xlink:href="#m37a0f3778b" x="128.936801" y="230.234696" style="stroke: #000000"/>
     <use xlink:href="#m37a0f3778b" x="124.442201" y="256.619608" style="stroke: #000000"/>
     <use xlink:href="#m37a0f3778b" x="218.876888" y="261.674322" style="stroke: #000000"/>
     <use xlink:href="#m37a0f3778b" x="243.541643" y="285.868418" style="stroke: #000000"/>
     <use xlink:href="#m37a0f3778b" x="274.569656" y="228.919142" style="stroke: #000000"/>
     <use xlink:href="#m37a0f3778b" x="248.801885" y="245.254561" style="stroke: #000000"/>
     <use xlink:href="#m37a0f3778b" x="264.661176" y="251.313729" style="stroke: #000000"/>
     <use xlink:href="#m37a0f3778b" x="220.05692" y="237.59431" style="stroke: #000000"/>
     <use xlink:href="#m37a0f3778b" x="257.365229" y="208.776268" style="stroke: #000000"/>
     <use xlink:href="#m37a0f3778b" x="256.289271" y="220.276043" style="stroke: #000000"/>
     <use xlink:href="#m37a0f3778b" x="237.574984" y="222.489722" style="stroke: #000000"/>
     <use xlink:href="#m37a0f3778b" x="258.553733" y="291.471267" style="stroke: #000000"/>
     <use xlink:href="#m37a0f3778b" x="246.913214" y="176.567308" style="stroke: #000000"/>
     <use xlink:href="#m37a0f3778b" x="232.329823" y="244.248868" style="stroke: #000000"/>
     <use xlink:href="#m37a0f3778b" x="238.079192" y="254.648134" style="stroke: #000000"/>
     <use xlink:href="#m37a0f3778b" x="235.009371" y="249.92826" style="stroke: #000000"/>
     <use xlink:href="#m37a0f3778b" x="234.279163" y="276.953536" style="stroke: #000000"/>
     <use xlink:href="#m37a0f3778b" x="251.290616" y="263.934084" style="stroke: #000000"/>
     <use xlink:href="#m37a0f3778b" x="277.327062" y="196.296294" style="stroke: #000000"/>
     <use xlink:href="#m37a0f3778b" x="229.923648" y="216.572069" style="stroke: #000000"/>
     <use xlink:href="#m37a0f3778b" x="233.799836" y="245.431754" style="stroke: #000000"/>
     <use xlink:href="#m37a0f3778b" x="233.275726" y="271.008683" style="stroke: #000000"/>
     <use xlink:href="#m37a0f3778b" x="311.318182" y="299.179434" style="stroke: #000000"/>
     <use xlink:href="#m37a0f3778b" x="257.860386" y="210.439004" style="stroke: #000000"/>
     <use xlink:href="#m37a0f3778b" x="233.130853" y="237.879656" style="stroke: #000000"/>
     <use xlink:href="#m37a0f3778b" x="247.8669" y="228.175676" style="stroke: #000000"/>
     <use xlink:href="#m37a0f3778b" x="291.859888" y="230.63055" style="stroke: #000000"/>
     <use xlink:href="#m37a0f3778b" x="225.909139" y="261.6116" style="stroke: #000000"/>
     <use xlink:href="#m37a0f3778b" x="236.327057" y="299.860975" style="stroke: #000000"/>
     <use xlink:href="#m37a0f3778b" x="271.273855" y="262.637895" style="stroke: #000000"/>
     <use xlink:href="#m37a0f3778b" x="248.275702" y="253.953638" style="stroke: #000000"/>
     <use xlink:href="#m37a0f3778b" x="269.44419" y="304.357314" style="stroke: #000000"/>
    </g>
   </g>
   <g id="patch_3">
    <path d="M 45 320.4 
L 45 43.2 
" style="fill: none; stroke: #000000; stroke-width: 0.8; stroke-linejoin: miter; stroke-linecap: square"/>
   </g>
   <g id="patch_4">
    <path d="M 324 320.4 
L 324 43.2 
" style="fill: none; stroke: #000000; stroke-width: 0.8; stroke-linejoin: miter; stroke-linecap: square"/>
   </g>
   <g id="patch_5">
    <path d="M 45 320.4 
L 324 320.4 
" style="fill: none; stroke: #000000; stroke-width: 0.8; stroke-linejoin: miter; stroke-linecap: square"/>
   </g>
   <g id="patch_6">
    <path d="M 45 43.2 
L 324 43.2 
" style="fill: none; stroke: #000000; stroke-width: 0.8; stroke-linejoin: miter; stroke-linecap: square"/>
   </g>
   <g id="text_11">
    <!-- Data -->
    <g transform="translate(152.982937 37.2) scale(0.264 -0.264)">
     <defs>
      <path id="DejaVuSans-44" d="M 1259 4147 
L 1259 519 
L 2022 519 
Q 2988 519 3436 956 
Q 3884 1394 3884 2338 
Q 3884 3275 3436 3711 
Q 2988 4147 2022 4147 
L 1259 4147 
z
M 628 4666 
L 1925 4666 
Q 3281 4666 3915 4102 
Q 4550 3538 4550 2338 
Q 4550 1131 3912 565 
Q 3275 0 1925 0 
L 628 0 
L 628 4666 
z
" transform="scale(0.015625)"/>
      <path id="DejaVuSans-61" d="M 2194 1759 
Q 1497 1759 1228 1600 
Q 959 1441 959 1056 
Q 959 750 1161 570 
Q 1363 391 1709 391 
Q 2188 391 2477 730 
Q 2766 1069 2766 1631 
L 2766 1759 
L 2194 1759 
z
M 3341 1997 
L 3341 0 
L 2766 0 
L 2766 531 
Q 2569 213 2275 61 
Q 1981 -91 1556 -91 
Q 1019 -91 701 211 
Q 384 513 384 1019 
Q 384 1609 779 1909 
Q 1175 2209 1959 2209 
L 2766 2209 
L 2766 2266 
Q 2766 2663 2505 2880 
Q 2244 3097 1772 3097 
Q 1472 3097 1187 3025 
Q 903 2953 641 2809 
L 641 3341 
Q 956 3463 1253 3523 
Q 1550 3584 1831 3584 
Q 2591 3584 2966 3190 
Q 3341 2797 3341 1997 
z
" transform="scale(0.015625)"/>
      <path id="DejaVuSans-74" d="M 1172 4494 
L 1172 3500 
L 2356 3500 
L 2356 3053 
L 1172 3053 
L 1172 1153 
Q 1172 725 1289 603 
Q 1406 481 1766 481 
L 2356 481 
L 2356 0 
L 1766 0 
Q 1100 0 847 248 
Q 594 497 594 1153 
L 594 3053 
L 172 3053 
L 172 3500 
L 594 3500 
L 594 4494 
L 1172 4494 
z
" transform="scale(0.015625)"/>
     </defs>
     <use xlink:href="#DejaVuSans-44"/>
     <use xlink:href="#DejaVuSans-61" x="77.001953"/>
     <use xlink:href="#DejaVuSans-74" x="138.28125"/>
     <use xlink:href="#DejaVuSans-61" x="177.490234"/>
    </g>
   </g>
  </g>
 </g>
 <defs>
  <clipPath id="p059c3f5265">
   <rect x="45" y="43.2" width="279" height="277.2"/>
  </clipPath>
 </defs>
</svg>
